HIERARCHY
ROOT locator2
{
  OFFSET 53.6172 30.1899 0.816905
  CHANNELS 6 Xposition Yposition Zposition Zrotation Xrotation Yrotation
  JOINT koshi
  {
    OFFSET 0 0 0
    CHANNELS 6 Xposition Yposition Zposition Zrotation Xrotation Yrotation
    JOINT sippo01
    {
      OFFSET 0 42.8363 -0.548134
      CHANNELS 6 Xposition Yposition Zposition Zrotation Xrotation Yrotation
      JOINT sippo02
      {
        OFFSET 0 44.0461 -3.28882
        CHANNELS 6 Xposition Yposition Zposition Zrotation Xrotation Yrotation
        JOINT sippo03
        {
          OFFSET 0 34.1929 -2.46662
          CHANNELS 6 Xposition Yposition Zposition Zrotation Xrotation Yrotation
          JOINT sippo04
          {
            OFFSET 0 30.0959 -1.75404
            CHANNELS 6 Xposition Yposition Zposition Zrotation Xrotation Yrotation
            JOINT sippo05
            {
              OFFSET 0 28.3637 -1.75404
              CHANNELS 6 Xposition Yposition Zposition Zrotation Xrotation Yrotation
              JOINT sippo06
              {
                OFFSET 0 31.6071 -3.2043
                CHANNELS 6 Xposition Yposition Zposition Zrotation Xrotation Yrotation
                End Site
                {
                  OFFSET 0 0 0
                }
              }
            }
          }
        }
      }
    }
    JOINT R_momo
    {
      OFFSET -27.891 13.5892 3.92723
      CHANNELS 6 Xposition Yposition Zposition Zrotation Xrotation Yrotation
      JOINT R_hiza
      {
        OFFSET 0 28.01 1.8232
        CHANNELS 6 Xposition Yposition Zposition Zrotation Xrotation Yrotation
        JOINT R_ashi
        {
          OFFSET 0 24.3992 -2.49174
          CHANNELS 6 Xposition Yposition Zposition Zrotation Xrotation Yrotation
          End Site
          {
            OFFSET 0 0 0
          }
        }
      }
    }
    JOINT L_momo
    {
      OFFSET 27.891 13.5892 3.92714
      CHANNELS 6 Xposition Yposition Zposition Zrotation Xrotation Yrotation
      JOINT L_hiza
      {
        OFFSET 0 28.0098 1.82319
        CHANNELS 6 Xposition Yposition Zposition Zrotation Xrotation Yrotation
        JOINT L_ashi
        {
          OFFSET 0 24.3992 -2.49171
          CHANNELS 6 Xposition Yposition Zposition Zrotation Xrotation Yrotation
          End Site
          {
            OFFSET 0 0 0
          }
        }
      }
    }
  }
  JOINT hara
  {
    OFFSET 0 2.15392 0
    CHANNELS 6 Xposition Yposition Zposition Zrotation Xrotation Yrotation
    JOINT mune
    {
      OFFSET 0 62.0609 0.472494
      CHANNELS 6 Xposition Yposition Zposition Zrotation Xrotation Yrotation
      JOINT R_kata
      {
        OFFSET 22.6695 9.65301 -5.3622
        CHANNELS 6 Xposition Yposition Zposition Zrotation Xrotation Yrotation
        JOINT R_hiji
        {
          OFFSET 0 25.813 1.69098
          CHANNELS 6 Xposition Yposition Zposition Zrotation Xrotation Yrotation
          JOINT R_te
          {
            OFFSET 0 28.5636 -0.966307
            CHANNELS 6 Xposition Yposition Zposition Zrotation Xrotation Yrotation
            End Site
            {
              OFFSET 0 0 0
            }
          }
        }
      }
      JOINT L_kata
      {
        OFFSET -22.6695 9.65298 -5.3622
        CHANNELS 6 Xposition Yposition Zposition Zrotation Xrotation Yrotation
        JOINT L_hiji
        {
          OFFSET 0 25.813 1.69102
          CHANNELS 6 Xposition Yposition Zposition Zrotation Xrotation Yrotation
          JOINT L_te
          {
            OFFSET 0 28.5636 -0.966295
            CHANNELS 6 Xposition Yposition Zposition Zrotation Xrotation Yrotation
            End Site
            {
              OFFSET 0 0 0
            }
          }
        }
      }
      JOINT kubi
      {
        OFFSET 0 23.1438 -0.944988
        CHANNELS 6 Xposition Yposition Zposition Zrotation Xrotation Yrotation
        JOINT atama
        {
          OFFSET 0 20.8625 4.12737
          CHANNELS 6 Xposition Yposition Zposition Zrotation Xrotation Yrotation
          JOINT ago
          {
            OFFSET 0 7.552 -7.58201
            CHANNELS 6 Xposition Yposition Zposition Zrotation Xrotation Yrotation
            End Site
            {
              OFFSET 0 0 0
            }
          }
        }
      }
    }
  }
}
MOTION
Frames:	8
Frame Time:	0.0333333
-0.000576015 29.951 3.51322 -90 -3.50835e-015 -90 0 0 0 -178.774 -0.800438 0.16622 5.21541e-007 42.8363 -0.548138 -2.97638 -9.57556 5.72781 1.89615e-006 44.0461 -3.28882 5.17564 14.5468 -3.34175 3.33216e-006 34.1929 -2.4666 3.18916 7.80315 -4.95042 -2.60582e-006 30.0959 -1.75402 2.49096 12.7166 -7.97261 -1.61478e-005 28.3636 -1.75403 11.2688 -1.31702 7.66703 -6.03731e-006 31.6072 -3.20429 0.714401 4.75711 -13.2821 -27.891 13.5892 3.92723 123.548 -21.5886 -44.3776 -1.52311e-005 28.01 1.8232 14.6068 -84.4543 0.277361 -7.40751e-006 24.3992 -2.49173 -154.726 64.5862 -170.004 27.891 13.5892 3.92714 -89.9665 -26.1661 67.7017 4.3704e-006 28.0098 1.82319 -1.20494 -53.8839 6.08707 3.83505e-006 24.3992 -2.49172 132.046 75.2869 173.896 6.07673e-007 2.15392 0 -5.75152 3.15719 -0.626359 -7.27773e-012 62.0609 0.472498 1.74931e-014 4.64038e-014 6.71954e-008 22.6695 9.653 -5.36221 -156.46 -13.4331 30.7315 7.10543e-015 25.813 1.69098 179.762 -71.3749 173.96 2.84217e-014 28.5636 -0.966313 50.3361 9.05587 -118.337 -22.6695 9.65298 -5.3622 124.575 -15.1228 -50.2763 -7.6294e-006 25.813 1.69103 -0.0547858 -63.0909 0.371927 3.80692e-008 28.5636 -0.966301 -40.3685 14.8609 95.1537 -4.09184e-012 23.1438 -0.94499 0.0670673 3.35037 -7.51472 -1.13669e-011 20.8625 4.12737 0.637139 13.8984 -7.57142 -1.49017e-008 7.55202 -7.58201 -1.15204e-005 -31.1068 -5.69583e-006 
1.8623e-005 30.0049 3.74573 -90 -3.50835e-015 -90 0 0 0 -179.332 -1.19394 0.150789 5.21541e-007 42.8363 -0.548138 -2.91531 -9.09358 6.05524 1.8944e-006 44.0461 -3.28882 4.40403 14.346 -2.8531 3.43491e-006 34.1929 -2.4666 1.39172 8.66229 -4.83722 -2.06973e-006 30.0959 -1.754 0.963919 13.1396 -8.36664 -1.50194e-005 28.3636 -1.75404 11.8066 -1.60598 7.59939 -5.08882e-006 31.6072 -3.20429 0.205915 4.32238 -13.845 -27.891 13.5892 3.92723 125.077 -21.917 -44.9756 -1.52711e-005 28.01 1.8232 13.6131 -84.4138 0.176527 -7.37717e-006 24.3992 -2.49173 -154.416 64.7539 -169.94 27.891 13.5892 3.92714 -88.2956 -26.7113 68.6494 4.43234e-006 28.0098 1.82319 -1.11254 -52.6751 5.91916 3.83235e-006 24.3992 -2.49172 131.126 75.7265 174.651 6.07673e-007 2.15392 0 -5.79184 3.62912 -0.577696 -7.27551e-012 62.0609 0.472498 7.95139e-016 -3.96327e-015 4.16454e-013 22.6695 9.653 -5.36221 -157.125 -14.5796 29.9052 0 25.813 1.69098 179.73 -72.5607 173.217 -1.42109e-014 28.5636 -0.966313 49.9413 7.70876 -117.978 -22.6695 9.65298 -5.3622 124.479 -15.7908 -50.2999 -7.6294e-006 25.813 1.69103 -0.0674371 -63.5268 0.498539 4.10523e-008 28.5636 -0.966301 -40.4962 14.8552 95.8671 -4.09273e-012 23.1438 -0.94499 0.997108 4.38028 -14.0716 -1.13687e-011 20.8625 4.12737 2.32293 17.1961 -14.6352 -1.49017e-008 7.55202 -7.58201 4.89538e-008 -26.4078 1.10871e-007 
0.000601714 30.0577 3.97372 -90 -3.50835e-015 -90 0 0 0 -179.879 -1.5799 0.126822 5.21542e-007 42.8363 -0.548138 -2.85641 -8.62378 6.37276 1.89169e-006 44.0461 -3.28882 3.64886 14.1462 -2.37954 3.53475e-006 34.1929 -2.46661 -0.378392 9.4978 -4.6741 -1.54213e-006 30.0959 -1.75408 -0.529276 13.545 -8.73211 -1.3916e-005 28.3636 -1.75404 9.36619 -1.90666 7.44032 -2.88617e-006 31.6072 -3.20429 -0.292255 2.32863 -14.4129 -27.891 13.5892 3.92723 126.591 -22.2047 -45.5586 -1.53136e-005 28.01 1.8232 12.6508 -84.3723 0.0913601 -7.34634e-006 24.3992 -2.49173 -154.107 64.9184 -169.88 27.891 13.5892 3.92714 -86.8573 -27.1788 69.5797 4.48572e-006 28.0098 1.82319 -1.02709 -51.4904 5.74882 3.82479e-006 24.3992 -2.49172 130.167 76.1533 175.445 6.07673e-007 2.15392 7.10543e-015 -4.60923 2.37946 -0.755942 -7.27507e-012 62.0609 0.472498 1.59028e-015 -2.36057e-016 -1.98785e-016 22.6695 9.653 -5.36221 -156.491 -12.8146 31.7322 0 25.813 1.69098 179.717 -72.3214 174.076 0 28.5636 -0.966313 49.9046 8.40651 -115.736 -22.6695 9.65298 -5.3622 124.89 -14.5226 -51.0912 -7.6294e-006 25.813 1.69103 -0.0971826 -68.5941 0.604947 4.14557e-008 28.5636 -0.966301 -40.4834 17.0045 97.6457 -4.09184e-012 23.1438 -0.94499 0.921656 5.39094 -19.3898 -1.13669e-011 20.8625 4.12737 3.39007 20.034 -20.1183 -1.49017e-008 7.55202 -7.58201 3.0783e-006 -17.0844 1.04793e-005 
0.00119058 30.3269 4.20397 -90 -3.50835e-015 -90 0 0 0 179.567 -1.96968 0.0963234 5.2154e-007 42.8363 -0.548138 -2.79714 -8.14908 6.69257 1.88793e-006 44.0461 -3.28882 2.88762 13.9417 -1.90709 3.63457e-006 34.1929 -2.46661 -2.17507 10.3321 -4.45602 -1.01087e-006 30.0959 -1.75405 -2.04688 13.9456 -9.0785 -1.28157e-005 28.3636 -1.75404 6.90042 -2.2107 7.2541 -5.34867e-007 31.6072 -3.20433 -0.792902 0.316195 -15.0209 -27.891 13.5892 3.92723 127.919 -22.3637 -45.2311 -1.53165e-005 28.01 1.8232 11.6945 -84.3289 0.0201668 -7.3424e-006 24.3992 -2.49173 -153.793 65.0822 -169.825 27.891 13.5892 3.92714 -85.3455 -27.5761 70.5429 4.53726e-006 28.0098 1.82319 -0.945784 -50.2941 5.57111 3.81742e-006 24.3992 -2.49172 129.13 76.5823 176.315 6.07673e-007 2.15392 3.55271e-015 -3.4184 1.10924 -0.883132 -7.27596e-012 62.0609 0.472498 3.97569e-016 -3.3048e-015 1.98785e-016 22.6695 9.653 -5.36221 -155.921 -10.0022 34.3412 -2.84217e-014 25.813 1.69098 179.713 -71.4745 174.955 -1.42109e-014 28.5636 -0.966313 49.0149 9.95907 -112.191 -22.6695 9.65298 -5.3622 125.411 -12.2295 -52.6852 -7.6294e-006 25.813 1.69103 -0.171244 -76.1175 0.588009 3.75008e-008 28.5636 -0.966301 -40.1375 20.6186 99.5026 -4.09184e-012 23.1438 -0.94499 -0.00467084 6.4104 -22.0588 -1.13687e-011 20.8625 4.12737 3.05053 21.8754 -22.1481 -1.49017e-008 7.55202 -7.58201 2.96728e-007 -8.61851 9.94834e-006 
0.00178522 30.5987 4.43648 -90 -3.50835e-015 -90 0 0 0 179.009 -2.36283 0.0596969 5.21541e-007 42.8363 -0.548138 -2.73725 -7.66719 7.01616 1.88307e-006 44.0461 -3.28882 2.11944 13.7323 -1.43521 3.73436e-006 34.1929 -2.46661 -3.99974 11.1626 -4.1814 -4.79423e-007 30.0959 -1.75405 -3.53238 14.3383 -9.41114 -1.17565e-005 28.3636 -1.75404 4.40946 -2.52071 7.04002 1.85126e-006 31.6072 -3.20431 -1.29959 -1.71667 -15.6706 -27.891 13.5892 3.92723 129.265 -22.501 -44.9101 -1.53211e-005 28.01 1.8232 10.742 -84.2834 -0.0371385 -7.33874e-006 24.3992 -2.49173 -153.326 65.3808 -169.898 27.891 13.5892 3.92714 -83.7621 -27.8972 71.5373 4.58677e-006 28.0098 1.82319 -0.868243 -49.0861 5.38396 3.81005e-006 24.3992 -2.49172 128.012 77.01 177.262 6.07673e-007 2.15392 7.10543e-015 -2.21917 -0.169497 -0.959836 -7.27507e-012 62.0609 0.472498 -3.97569e-016 6.21202e-016 -1.98785e-016 22.6695 9.653 -5.36221 -155.278 -7.53611 37.0531 0 25.813 1.69098 179.694 -71.6191 175.826 -2.84217e-014 28.5636 -0.966313 48.0315 11.0123 -108.422 -22.6695 9.65298 -5.3622 125.397 -10.499 -54.2151 -7.6294e-006 25.813 1.69103 -0.375959 -82.8579 0.440634 3.27541e-008 28.5636 -0.966301 -40.0707 24.1895 101.316 -4.09273e-012 23.1438 -0.94499 -1.68138 6.87064 -22.4606 -1.13634e-011 20.8625 4.12737 1.51064 22.4186 -21.576 -1.49017e-008 7.55202 -7.58201 2.36061e-008 -0.13678 1.0017e-005 
0.00236831 30.8652 4.66447 -90 -3.50835e-015 -90 0 0 0 178.46 -2.74854 0.0172472 5.21541e-007 42.8363 -0.548138 -2.67925 -7.19666 7.33113 1.87733e-006 44.0461 -3.28882 1.36671 13.5242 -0.977811 3.8313e-006 34.1929 -2.46661 -5.79967 11.9627 -3.85983 3.34587e-008 30.0959 -1.75404 -4.98758 14.4696 -8.92857 -1.08136e-005 28.3636 -1.75404 1.96652 -3.21734 6.81848 4.1036e-006 31.6072 -3.20431 -1.79929 -3.70813 -16.3425 -27.891 13.5892 3.92723 130.307 -23.1869 -45.3356 -1.53833e-005 28.01 1.8232 9.82519 -84.2374 -0.0980609 -7.31228e-006 24.3992 -2.49173 -152.859 65.6703 -169.981 27.891 13.5892 3.92714 -82.1614 -28.1303 72.5284 4.63259e-006 28.0098 1.82319 -0.795828 -47.9006 4.96018 3.80793e-006 24.3992 -2.49172 126.841 77.4238 178.264 6.07673e-007 2.15392 3.55271e-015 -1.04373 -0.730935 -1.19038 -7.27596e-012 62.0609 0.472498 1.98785e-016 2.76124e-015 3.97569e-016 22.6695 9.653 -5.36221 -154.983 -6.38854 37.9087 -1.42109e-014 25.813 1.69098 179.662 -72.5479 176.666 0 28.5636 -0.966313 46.9427 11.4561 -105.982 -22.6695 9.65298 -5.3622 125.073 -9.53075 -55.2058 -7.6294e-006 25.813 1.69103 -0.686701 -85.644 0.187063 3.0559e-008 28.5636 -0.966301 -40.2597 26.8643 103.02 -4.09184e-012 23.1438 -0.94499 -3.74295 6.08373 -21.2029 -1.13687e-011 20.8625 4.12737 -0.573741 22.1649 -19.6877 -1.49017e-008 7.55202 -7.58201 -2.44725e-007 1.39765 1.00199e-005 
0.00295717 31.1344 4.89471 -90 -3.50835e-015 -90 0 0 0 177.907 -3.13639 -0.0292606 5.21541e-007 42.8363 -0.548138 -2.62101 -6.75613 7.64694 1.87127e-006 44.0461 -3.28882 0.60964 13.3123 -0.522725 3.92841e-006 34.1929 -2.46661 -7.62877 12.7536 -3.48198 5.39997e-007 30.0959 -1.75404 -6.46025 14.5926 -8.43322 -9.90865e-006 28.3636 -1.75404 -0.503592 -3.91694 6.53438 6.25468e-006 31.6072 -3.2043 -1.65096 -5.72055 -16.9911 -27.891 13.5892 3.92723 131.364 -23.8801 -45.7465 -1.5448e-005 28.01 1.8232 8.91325 -84.1895 -0.144751 -7.28447e-006 24.3992 -2.49173 -152.375 65.9618 -170.077 27.891 13.5892 3.92714 -80.5035 -28.2792 73.5399 4.67584e-006 28.0098 1.82319 -0.726534 -46.7037 4.52751 3.80515e-006 24.3992 -2.49172 125.574 77.8367 179.359 6.07673e-007 2.15392 3.55271e-015 0.14346 -1.29744 -1.39978 -7.27596e-012 62.0609 0.472498 2.48481e-017 3.06719e-016 3.97569e-016 22.6695 9.653 -5.36221 -154.675 -5.23521 38.7606 -2.84217e-014 25.813 1.69098 179.673 -73.0916 176.867 0 28.5636 -0.966313 47.1696 11.6308 -103.776 -22.6695 9.65298 -5.3622 124.708 -9.00467 -56.0871 -7.6294e-006 25.813 1.69103 -2.14469 -88.4577 -1.21319 2.79852e-008 28.5636 -0.966301 -40.3946 28.5495 103.987 -4.09184e-012 23.1438 -0.94499 -5.74071 4.42659 -18.7052 -1.13651e-011 20.8625 4.12737 -2.8504 21.3546 -16.6531 -1.49017e-008 7.55202 -7.58201 -1.00475e-005 2.94929 8.28206e-007 
0.00355181 31.405 5.12603 -90 -3.50835e-015 -90 0 0 0 177.353 -3.52498 -0.101164 5.21541e-007 42.8363 -0.548138 -2.56245 -6.31106 7.96509 1.8642e-006 44.0461 -3.28882 0.527437 13.0963 -0.227386 3.92936e-006 34.1929 -2.46661 -9.47858 13.527 -3.0413 9.5735e-007 30.0959 -1.75404 -7.94866 14.7064 -7.92575 -9.10926e-006 28.3636 -1.75404 -2.99016 -4.61549 6.18715 8.15747e-006 31.6072 -3.2043 -1.50141 -7.75303 -17.6353 -27.891 13.5892 3.92723 132.43 -24.5775 -46.1456 -1.5515e-005 28.01 1.8232 8.008 -84.1396 -0.176267 -7.25556e-006 24.3992 -2.49173 -151.905 66.2631 -170.155 27.891 13.5892 3.92714 -79.4577 -28.5708 74.2871 4.70888e-006 28.0098 1.82319 -0.660096 -45.498 4.08637 3.80397e-006 24.3992 -2.49172 124.49 78.325 -179.727 6.07673e-007 2.15392 0 0.0900489 -1.87058 -1.62866 -7.27596e-012 62.0609 0.472498 -4.43303e-033 -1.27774e-015 -1.98785e-016 22.6695 9.653 -5.36221 -154.328 -4.8906 39.9754 -1.42109e-014 25.813 1.69098 179.695 -73.0488 177.075 -7.10543e-015 28.5636 -0.966313 47.4312 11.9445 -103.102 -22.6695 9.65298 -5.3622 124.435 -8.39613 -56.8024 -7.6294e-006 25.813 1.69103 -177.142 -88.7305 -176.153 2.5082e-008 28.5636 -0.966301 -40.2976 29.3467 104.092 -4.09273e-012 23.1438 -0.94499 -7.52806 1.98206 -15.4817 -1.13669e-011 20.8625 4.12737 -4.81928 19.9876 -13.0058 -1.49017e-008 7.55202 -7.58201 -7.3152e-006 4.46879 7.17279e-006 
